<svg xmlns="http://www.w3.org/2000/svg" viewBox="0 0 40 40">
  <rect width="40" height="40" rx="9" fill="#4A2E1C"/>
  <g fill="#EDD9BC" transform="translate(20 20) scale(.72) translate(-20 -20)">
    <ellipse cx="13" cy="9"  rx="4.5" ry="5.5"/>
    <ellipse cx="27" cy="9"  rx="4.5" ry="5.5"/>
    <ellipse cx="6"  cy="20" rx="3.5" ry="4.5"/>
    <ellipse cx="34" cy="20" rx="3.5" ry="4.5"/>
    <path d="M20 15c6 0 12 5.5 12 12 0 4.5-3.5 7.5-8 7.5-1.5 0-2.5-.5-4-.5s-2.5.5-4 .5c-4.5 0-8-3-8-7.5 0-6.5 6-12 12-12z"/>
  </g>
</svg>
